<svg width="25" height="25" viewBox="0 0 25 25" fill="none" xmlns="http://www.w3.org/2000/svg">
<path d="M21.3064 4.98286C20.7956 4.47186 20.1892 4.0665 19.5217 3.78994C18.8542 3.51338 18.1388 3.37103 17.4164 3.37103C16.6939 3.37103 15.9785 3.51338 15.311 3.78994C14.6435 4.0665 14.0371 4.47186 13.5264 4.98286L12.4664 6.04286L11.4064 4.98286C10.3747 3.95117 8.97538 3.37157 7.51635 3.37157C6.05732 3.37157 4.65804 3.95117 3.62635 4.98286C2.59466 6.01455 2.01506 7.41383 2.01506 8.87286C2.01506 10.3319 2.59466 11.7312 3.62635 12.7629L4.68635 13.8229L12.4664 21.6029L20.2464 13.8229L21.3064 12.7629C21.8173 12.2521 22.2227 11.6457 22.4993 10.9782C22.7758 10.3108 22.9182 9.59535 22.9182 8.87286C22.9182 8.15037 22.7758 7.43496 22.4993 6.7675C22.2227 6.10004 21.8173 5.49361 21.3064 4.98286V4.98286Z" stroke="black" stroke-width="2" stroke-linecap="round" stroke-linejoin="round"/>
</svg>
